<svg xmlns="http://www.w3.org/2000/svg" version="1.1" xmlns:xlink="http://www.w3.org/1999/xlink" xmlns:svgjs="http://svgjs.com/svgjs" width="1500" height="1500" preserveAspectRatio="none" viewBox="0 0 1500 1500"><g mask="url(&quot;#SvgjsMask1067&quot;)" fill="none"><path d="M809.86 1283.69 a274.28 274.28 0 1 0 548.56 0 a274.28 274.28 0 1 0 -548.56 0z" fill="rgba(185, 66, 6, 0.24)" class="triangle-float2"></path><path d="M-394.85 871.77 a473.87 473.87 0 1 0 947.74 0 a473.87 473.87 0 1 0 -947.74 0z" fill="rgba(185, 66, 6, 0.24)" class="triangle-float3"></path><path d="M1022.38 205.26 a318.41 318.41 0 1 0 636.82 0 a318.41 318.41 0 1 0 -636.82 0z" fill="rgba(185, 66, 6, 0.24)" class="triangle-float3"></path><path d="M-125.47 1395.23 a360.83 360.83 0 1 0 721.66 0 a360.83 360.83 0 1 0 -721.66 0z" fill="rgba(185, 66, 6, 0.24)" class="triangle-float2"></path></g><defs><mask id="SvgjsMask1067"><rect width="1500" height="1500" fill="#ffffff"></rect></mask><style>
            @keyframes float1 {
                0%{transform: translate(0, 0)}
                50%{transform: translate(-10px, 0)}
                100%{transform: translate(0, 0)}
            }

            .triangle-float1 {
                animation: float1 5s infinite;
            }

            @keyframes float2 {
                0%{transform: translate(0, 0)}
                50%{transform: translate(-5px, -5px)}
                100%{transform: translate(0, 0)}
            }

            .triangle-float2 {
                animation: float2 4s infinite;
            }

            @keyframes float3 {
                0%{transform: translate(0, 0)}
                50%{transform: translate(0, -10px)}
                100%{transform: translate(0, 0)}
            }

            .triangle-float3 {
                animation: float3 6s infinite;
            }
        </style></defs></svg>